<svg xmlns="http://www.w3.org/2000/svg" xmlns:xlink="http://www.w3.org/1999/xlink" width="151.234" height="80" viewBox="0 0 151.234 80">
  <defs>
    <clipPath id="clip-path">
      <rect id="Rectangle_4" data-name="Rectangle 4" width="151.234" height="80" transform="translate(16.05 16.27)" fill="none"/>
    </clipPath>
    <clipPath id="clip-path-2">
      <rect id="Rectangle_3" data-name="Rectangle 3" width="151.23" height="80" transform="translate(0 0)" fill="none"/>
    </clipPath>
  </defs>
  <g id="redcross-logo" transform="translate(-16.05 -16.27)" clip-path="url(#clip-path)">
    <g id="Group_1" data-name="Group 1" transform="translate(16.05 16.27)" clip-path="url(#clip-path-2)">
      <line id="Line_1" data-name="Line 1" y2="39.945" transform="translate(70.172 19.761)" fill="none" stroke="#ed1c24" stroke-width="0.48"/>
      <path id="Path_1" data-name="Path 1" d="M177.35,59.79H181.6v7.79h.058c.423-.673.875-1.3,1.322-1.922l4.3-5.868h5.286l-6.291,7.482,6.584,10.092H187.87L183.2,69.781l-1.605,1.85v5.724H177.35Z" transform="translate(-99.835 -38.876)"/>
      <path id="Path_2" data-name="Path 2" d="M214.449,77.1c.139,1.668,1.884,2.451,3.878,2.451a12.153,12.153,0,0,0,3.8-.548l.548,2.686a14.033,14.033,0,0,1-4.979.807c-4.671,0-7.348-2.5-7.348-6.516a6.619,6.619,0,0,1,6.949-6.8c4.45,0,6.137,3.205,6.137,6.358a9.245,9.245,0,0,1-.139,1.586Zm5.036-2.72a2.353,2.353,0,0,0-2.4-2.576,2.71,2.71,0,0,0-2.672,2.576Z" transform="translate(-116.976 -43.753)"/>
      <path id="Path_3" data-name="Path 3" d="M242.821,73.575c0-1.586-.053-2.912-.111-4.066h3.715l.2,1.778h.067a5.027,5.027,0,0,1,4.248-2.062c2.811,0,4.921,1.744,4.921,5.5v7.53h-4.272v-7.06c0-1.639-.62-2.763-2.172-2.763a2.326,2.326,0,0,0-2.177,1.49,2.59,2.59,0,0,0-.144.99v7.343h-4.277Z" transform="translate(-133.785 -43.775)"/>
      <path id="Path_4" data-name="Path 4" d="M277.693,69.82l2.057,6.247c.226.754.5,1.7.673,2.374h.086c.2-.678.423-1.644.615-2.374l1.7-6.247h4.565l-3.205,8.4c-1.97,5.056-3.292,7.06-4.839,8.338A7.8,7.8,0,0,1,275.2,88.3l-.9-3.335a7.092,7.092,0,0,0,1.855-.678,4.7,4.7,0,0,0,1.773-1.591,1.067,1.067,0,0,0,.231-.572,1.672,1.672,0,0,0-.173-.654L272.94,69.82Z" transform="translate(-149.487 -44.086)"/>
      <path id="Path_5" data-name="Path 5" d="M316.9,79.261a14.962,14.962,0,0,0,.226,3.071h-3.845l-.25-1.274h-.106a5.181,5.181,0,0,1-3.941,1.562c-2.792,0-4.45-1.879-4.45-3.907,0-3.311,3.205-4.873,8.069-4.873v-.154c0-.682-.384-1.648-2.5-1.648a8.593,8.593,0,0,0-3.8.961l-.788-2.523a11.985,11.985,0,0,1,5.349-1.149c4.585,0,6.017,2.5,6.017,5.5Zm-4.138-2.951c-2.254,0-3.989.481-3.989,2.009a1.486,1.486,0,0,0,1.682,1.514,2.364,2.364,0,0,0,2.225-1.442,2.783,2.783,0,0,0,.082-.678Z" transform="translate(-165.901 -43.829)"/>
      <path id="Path_6" data-name="Path 6" d="M176.434,113.909a18.16,18.16,0,0,1,3.133-.26,5.632,5.632,0,0,1,3.681.961,2.835,2.835,0,0,1,.995,2.225,3.136,3.136,0,0,1-2.4,2.97v.053a3.005,3.005,0,0,1,1.855,2.36,20.116,20.116,0,0,0,.961,3.21h-1.692a13.672,13.672,0,0,1-.822-2.792c-.375-1.62-1.067-2.225-2.552-2.278h-1.538v5.07H176.42Zm1.634,5.32h1.672c1.744,0,2.85-.889,2.85-2.225,0-1.514-1.187-2.172-2.883-2.172a7.5,7.5,0,0,0-1.615.139Z" transform="translate(-99.351 -66.852)"/>
      <path id="Path_7" data-name="Path 7" d="M197.725,124.93a2.774,2.774,0,0,0,3.09,2.883,6.281,6.281,0,0,0,2.518-.437l.3,1.1a7.872,7.872,0,0,1-3.037.538c-2.773,0-4.464-1.72-4.464-4.239a4.227,4.227,0,0,1,4.277-4.532c2.965,0,3.734,2.4,3.734,3.96a3.023,3.023,0,0,1-.062.711Zm4.806-1.1a2.242,2.242,0,0,0-2.273-2.485,2.62,2.62,0,0,0-2.533,2.485Z" transform="translate(-109.589 -70.275)"/>
      <path id="Path_8" data-name="Path 8" d="M224.186,112.53v10.164a21.528,21.528,0,0,0,.067,2.167h-1.48l-.072-1.442h-.043a3.364,3.364,0,0,1-3.076,1.648,3.959,3.959,0,0,1-3.9-4.272c0-2.811,1.879-4.513,4.07-4.513a3.086,3.086,0,0,1,2.744,1.269h.034V112.53Zm-1.658,7.348a2.793,2.793,0,0,0-.072-.658,2.4,2.4,0,0,0-2.4-1.754c-1.7,0-2.72,1.389-2.72,3.234,0,1.72.923,3.124,2.686,3.124a2.465,2.465,0,0,0,2.4-1.845,2.365,2.365,0,0,0,.072-.639Z" transform="translate(-119.744 -66.271)"/>
      <path id="Path_9" data-name="Path 9" d="M255.447,124.969a8.694,8.694,0,0,1-3.34.553c-3.566,0-6.247-2.086-6.247-5.925,0-3.662,2.677-6.132,6.6-6.132a7.824,7.824,0,0,1,3,.481l-.408,1.249a6.247,6.247,0,0,0-2.537-.481c-2.965,0-4.935,1.754-4.935,4.806,0,2.883,1.783,4.69,4.844,4.69a6.934,6.934,0,0,0,2.677-.481Z" transform="translate(-135.421 -66.753)"/>
      <path id="Path_10" data-name="Path 10" d="M269.917,123.121c0-.995,0-1.841-.077-2.624h1.442l.072,1.653h.058a2.715,2.715,0,0,1,2.533-1.841,3.137,3.137,0,0,1,.447.034v1.442c-.163,0-.332-.029-.557-.029a2.249,2.249,0,0,0-2.215,1.922,4.22,4.22,0,0,0-.058.711v4.493h-1.644Z" transform="translate(-147.877 -70.312)"/>
      <path id="Path_11" data-name="Path 11" d="M285.345,129.095A4.157,4.157,0,0,1,281,124.77a4.267,4.267,0,0,1,4.5-4.46,4.129,4.129,0,0,1,4.373,4.325,4.288,4.288,0,0,1-4.508,4.479Zm.072-1.144c1.581,0,2.763-1.37,2.763-3.282,0-1.442-.769-3.215-2.72-3.215s-2.782,1.668-2.782,3.263c0,1.845,1.134,3.234,2.725,3.234Z" transform="translate(-153.67 -70.312)"/>
      <path id="Path_12" data-name="Path 12" d="M302.925,127.339a4.9,4.9,0,0,0,2.191.591c1.187,0,1.749-.538,1.749-1.249s-.481-1.11-1.677-1.528c-1.648-.553-2.4-1.389-2.4-2.379,0-1.355,1.2-2.465,3.129-2.465a4.522,4.522,0,0,1,2.215.514l-.394,1.1a4.008,4.008,0,0,0-1.86-.481c-.961,0-1.5.519-1.5,1.144s.529,1,1.711,1.442c1.552.533,2.379,1.269,2.379,2.518,0,1.495-1.254,2.537-3.364,2.537a5.44,5.44,0,0,1-2.552-.591Z" transform="translate(-164.868 -70.31)"/>
      <path id="Path_13" data-name="Path 13" d="M318.406,127.339a4.9,4.9,0,0,0,2.191.591c1.182,0,1.744-.538,1.744-1.249s-.481-1.11-1.668-1.528c-1.648-.553-2.4-1.389-2.4-2.379,0-1.355,1.2-2.465,3.129-2.465a4.508,4.508,0,0,1,2.215.514l-.394,1.1a3.969,3.969,0,0,0-1.855-.481c-.961,0-1.5.519-1.5,1.144s.524,1,1.706,1.442c1.562.533,2.4,1.269,2.4,2.518,0,1.495-1.259,2.537-3.364,2.537a5.488,5.488,0,0,1-2.557-.591Z" transform="translate(-172.919 -70.31)"/>
      <path id="Path_14" data-name="Path 14" d="M39.646,32.689s1.644.192,2.028-1.1-1.057-7.651-11.111-14.8c0,0-.519-.481-.783-.389" transform="translate(-23.182 -16.335)" fill="#fff"/>
      <path id="Path_15" data-name="Path 15" d="M39.646,32.689s1.644.192,2.028-1.1-1.057-7.651-11.111-14.8c0,0-.519-.481-.783-.389" transform="translate(-23.182 -16.335)" fill="none" stroke="#231f20" stroke-linecap="round" stroke-width="0.24"/>
      <path id="Path_16" data-name="Path 16" d="M39.711,32.7s-.567,1.562-1.889,1.322-6.348-4.4-8.17-16.6c0,0-.178-.783.029-.961" transform="translate(-23.079 -16.369)" fill="#231f20"/>
      <path id="Path_17" data-name="Path 17" d="M39.711,32.7s-.567,1.562-1.889,1.322-6.348-4.4-8.17-16.6c0,0-.178-.783.029-.961" transform="translate(-23.079 -16.369)" fill="none" stroke="#231f20" stroke-linecap="round" stroke-width="0.24"/>
      <path id="Path_18" data-name="Path 18" d="M36.42,27.2s20.8,29.4,46.255,71.23c1.514,2.489-2.09,3.676-3.09,2.11C78.9,99.472,58.324,68.524,36.42,27.2Z" transform="translate(-26.631 -21.947)" fill="#231f20"/>
      <path id="Path_19" data-name="Path 19" d="M110.444,32.689s-1.648.192-2.033-1.1,1.057-7.651,11.111-14.8c0,0,.519-.481.783-.389" transform="translate(-63.997 -16.335)" fill="#fff"/>
      <path id="Path_20" data-name="Path 20" d="M110.444,32.689s-1.648.192-2.033-1.1,1.057-7.651,11.111-14.8c0,0,.519-.481.783-.389" transform="translate(-63.997 -16.335)" fill="none" stroke="#231f20" stroke-linecap="round" stroke-width="0.24"/>
      <path id="Path_21" data-name="Path 21" d="M112.34,32.693s.567,1.562,1.889,1.317,6.348-4.4,8.17-16.6c0,0,.178-.783-.029-.961" transform="translate(-66.066 -16.363)" fill="#231f20"/>
      <path id="Path_22" data-name="Path 22" d="M112.34,32.693s.567,1.562,1.889,1.317,6.348-4.4,8.17-16.6c0,0,.178-.783-.029-.961" transform="translate(-66.066 -16.363)" fill="none" stroke="#231f20" stroke-linecap="round" stroke-width="0.24"/>
      <path id="Path_23" data-name="Path 23" d="M76.2,27.2s-20.8,29.4-46.255,71.23c-1.519,2.489,2.086,3.676,3.09,2.11C33.71,99.472,54.287,68.524,76.2,27.2Z" transform="translate(-23.075 -21.947)" fill="#231f20"/>
      <path id="Path_24" data-name="Path 24" d="M51.851,43s-28.6,9.828-25.5,36c2.537,21.443,23.908,30.7,25.855,31.093,1.744.346,30.074-17.224,26.912-35.985S65.172,48.378,51.851,43Z" transform="translate(-21.277 -30.154)" fill="#fff"/>
      <path id="Path_25" data-name="Path 25" d="M41.294,44.343S16.026,54,16.05,75.229,39.6,106.6,45.518,108.989c5.209,2.11-1.764-1.821-3.1-2.677-1.97-1.264-17.127-10.9-17.127-31.083S43.154,44.555,43.827,44.2C45.821,43.171,52.669,39.682,41.294,44.343Z" transform="translate(-16.05 -29.624)" fill="#231f20"/>
      <path id="Path_26" data-name="Path 26" d="M87.383,44.222s25.268,9.664,25.268,30.891S89.1,106.475,83.183,108.868s1.182-1.442,3.1-2.677,17.324-10.9,17.324-31.078S85.48,44.4,84.851,44.083C83.274,43.347,76.354,39.7,87.383,44.222Z" transform="translate(-49.721 -29.632)" fill="#ed1c24"/>
      <rect id="Rectangle_1" data-name="Rectangle 1" width="13.153" height="39.45" transform="translate(25.062 26.374)" fill="#ed1c24"/>
      <rect id="Rectangle_2" data-name="Rectangle 2" width="39.45" height="13.153" transform="translate(11.913 39.531)" fill="#ed1c24"/>
    </g>
  </g>
</svg>
