<svg xmlns="http://www.w3.org/2000/svg" width="122.337" height="155.54" viewBox="0 0 122.337 155.54">
  <g id="Group_25" data-name="Group 25" transform="translate(0 0.064)">
    <path id="Path_63" data-name="Path 63" d="M48.96,48.07s3.2.374,3.942-2.13S50.847,31.067,31.3,17.175c0,0-1.009-.934-1.523-.757" transform="translate(-16.953 -16.335)" fill="#fff"/>
    <path id="Path_64" data-name="Path 64" d="M48.96,48.07s3.2.374,3.942-2.13S50.847,31.067,31.3,17.175c0,0-1.009-.934-1.523-.757" transform="translate(-16.953 -16.335)" fill="none" stroke="#231f20" stroke-linecap="round" stroke-width="0.24"/>
    <path id="Path_65" data-name="Path 65" d="M49.274,48.028s-1.1,3.036-3.672,2.569S33.261,42.039,29.72,18.328c0,0-.346-1.523.056-1.868" transform="translate(-16.94 -16.34)" fill="#231f20"/>
    <path id="Path_66" data-name="Path 66" d="M49.274,48.028s-1.1,3.036-3.672,2.569S33.261,42.039,29.72,18.328c0,0-.346-1.523.056-1.868" transform="translate(-16.94 -16.34)" fill="none" stroke="#231f20" stroke-linecap="round" stroke-width="0.24"/>
    <path id="Path_67" data-name="Path 67" d="M36.42,27.2s40.433,57.147,89.919,138.471c2.943,4.839-4.064,7.147-6.007,4.1C119.006,167.7,79,107.534,36.42,27.2Z" transform="translate(-17.39 -17.046)" fill="#231f20"/>
    <path id="Path_68" data-name="Path 68" d="M112.414,48.07s-3.2.374-3.952-2.13,2.055-14.873,21.6-28.765c0,0,1.009-.934,1.523-.757" transform="translate(-22.121 -16.335)" fill="#fff"/>
    <path id="Path_69" data-name="Path 69" d="M112.414,48.07s-3.2.374-3.952-2.13,2.055-14.873,21.6-28.765c0,0,1.009-.934,1.523-.757" transform="translate(-22.121 -16.335)" fill="none" stroke="#231f20" stroke-linecap="round" stroke-width="0.24"/>
    <path id="Path_70" data-name="Path 70" d="M112.34,48.027s1.1,3.036,3.671,2.56,12.341-8.558,15.882-32.268c0,0,.346-1.523-.056-1.868" transform="translate(-22.383 -16.339)" fill="#231f20"/>
    <path id="Path_71" data-name="Path 71" d="M112.34,48.027s1.1,3.036,3.671,2.56,12.341-8.558,15.882-32.268c0,0,.346-1.523-.056-1.868" transform="translate(-22.383 -16.339)" fill="none" stroke="#231f20" stroke-linecap="round" stroke-width="0.24"/>
    <path id="Path_72" data-name="Path 72" d="M120.209,27.2S79.766,84.347,30.29,165.671c-2.952,4.839,4.055,7.147,6.007,4.1C37.614,167.7,77.618,107.534,120.209,27.2Z" transform="translate(-16.939 -17.046)" fill="#231f20"/>
    <path id="Path_73" data-name="Path 73" d="M76.147,43s-55.6,19.1-49.579,69.992c4.933,41.685,46.478,59.688,50.261,60.444,3.391.673,58.464-33.483,52.317-69.955S102.044,53.454,76.147,43Z" transform="translate(-16.712 -18.085)" fill="#fff"/>
    <path id="Path_74" data-name="Path 74" d="M65.125,46.576S16,65.354,16.05,106.619,61.827,167.6,73.337,172.248c10.127,4.1-3.429-3.541-6.026-5.2-3.83-2.457-33.3-21.188-33.3-60.426S68.74,46.987,70.048,46.305C73.925,44.3,87.238,37.514,65.125,46.576Z" transform="translate(-16.05 -18.018)" fill="#231f20"/>
    <path id="Path_75" data-name="Path 75" d="M93.529,46.325s49.122,18.787,49.122,60.052S96.873,167.345,85.364,172s2.3-2.8,6.026-5.2,33.679-21.188,33.679-60.416S89.829,46.671,88.606,46.054C85.541,44.625,72.088,37.525,93.529,46.325Z" transform="translate(-20.314 -18.019)" fill="#ed1c24"/>
    <rect id="Rectangle_18" data-name="Rectangle 18" width="25.57" height="76.691" transform="translate(48.72 51.213)" fill="#ed1c24"/>
    <rect id="Rectangle_19" data-name="Rectangle 19" width="76.691" height="25.57" transform="translate(23.159 76.792)" fill="#ed1c24"/>
  </g>
</svg>
